<?xml version="1.0" encoding="UTF-8" standalone="no"?>
<svg
   style="image-rendering:optimizeQuality;shape-rendering:geometricPrecision;text-rendering:geometricPrecision"
   fill-rule="evenodd"
   xml:space="preserve"
   clip-rule="evenodd"
   viewBox="0 0 58.281884 58.281889"
   version="1.1"
   id="svg15"
   sodipodi:docname="phone.svg"
   width="24.012136"
   height="24.012138"
   inkscape:version="1.2.1 (9c6d41e410, 2022-07-14)"
   xmlns:inkscape="http://www.inkscape.org/namespaces/inkscape"
   xmlns:sodipodi="http://sodipodi.sourceforge.net/DTD/sodipodi-0.dtd"
   xmlns="http://www.w3.org/2000/svg"
   xmlns:svg="http://www.w3.org/2000/svg"
   xmlns:rdf="http://www.w3.org/1999/02/22-rdf-syntax-ns#"
   xmlns:cc="http://creativecommons.org/ns#"
   xmlns:dc="http://purl.org/dc/elements/1.1/"><sodipodi:namedview
   id="namedview17"
   pagecolor="#ffffff"
   bordercolor="#000000"
   borderopacity="0.25"
   inkscape:showpageshadow="2"
   inkscape:pageopacity="0.0"
   inkscape:pagecheckerboard="0"
   inkscape:deskcolor="#d1d1d1"
   showgrid="false"
   inkscape:zoom="13.966576"
   inkscape:cx="25.811624"
   inkscape:cy="29.176801"
   inkscape:window-width="2400"
   inkscape:window-height="1271"
   inkscape:window-x="2391"
   inkscape:window-y="-9"
   inkscape:window-maximized="1"
   inkscape:current-layer="svg15" />
 <defs
   id="defs4">
  <style
   type="text/css"
   id="style2">
    .fil0 {fill:#1B1C1F}
    .fil1 {fill:#1B1C1F;fill-rule:nonzero}
  </style>
 </defs>
 <g
   id="Layer_x0020_1"
   transform="translate(3.545e-4)">
  <g
   id="_152222920">
   <path
   id="_152222248"
   class="fil0"
   d="m 24.186,22.5 c -5.4466,3.1445 2.8637,18.724 8.8237,15.283 1.0584,1.8332 4.4676,7.7381 5.526,9.5712 -2.5146,1.4519 -4.6432,2.3671 -7.5585,0.70054 -8.0946,-4.6273 -17.005,-20.054 -16.751,-29.256 0.08805,-3.196 1.971,-4.4482 4.434,-5.8702 1.0584,1.8332 4.4676,7.738 5.526,9.5712 z" />
   <path
   id="_150519168"
   class="fil0"
   d="m 26.47,22.24 c -0.58849,0.33978 -1.3458,0.13697 -1.6856,-0.45158 l -5.2095,-9.0232 c -0.33984,-0.58862 -0.13704,-1.3459 0.45152,-1.6857 l 2.738,-1.5808 c 0.58855,-0.33984 1.346,-0.13685 1.6858,0.4517 l 5.2095,9.0231 c 0.33978,0.58849 0.13691,1.3458 -0.45158,1.6856 l -2.738,1.5808 z" />
   <path
   id="_226148072"
   class="fil0"
   d="m 40.702,46.89 c -0.58849,0.33978 -1.3458,0.13697 -1.6856,-0.45164 l -5.2095,-9.0232 c -0.33984,-0.58855 -0.13704,-1.3459 0.45152,-1.6856 l 2.738,-1.5808 c 0.58855,-0.33978 1.346,-0.13679 1.6858,0.4517 l 5.2095,9.0231 c 0.33978,0.58855 0.13691,1.3459 -0.45158,1.6856 l -2.738,1.5808 z" />
  </g>
  <path
   id="path10"
   style="stroke-width:2.69903;stroke-dasharray:none"
   class="fil1"
   sodipodi:type="inkscape:offset"
   inkscape:radius="0"
   inkscape:original="M 29.140625 0.005859375 C 21.090625 0.006059375 13.804456 3.2658562 8.5351562 8.5351562 C 3.2655562 13.804156 0.005982775 21.090625 0.005859375 29.140625 C 0.006059375 37.190625 3.2658562 44.476694 8.5351562 49.746094 C 13.804156 55.015694 21.090625 58.275268 29.140625 58.275391 C 37.190625 58.275191 44.476694 55.015394 49.746094 49.746094 C 55.015694 44.477094 58.275267 37.192578 58.275391 29.142578 L 58.28125 29.142578 L 58.28125 29.140625 L 58.275391 29.140625 C 58.275191 21.090625 55.015394 13.806409 49.746094 8.5371094 C 44.477094 3.2675094 37.190625 0.005982775 29.140625 0.005859375 z M 29.140625 3.4765625 C 36.219625 3.4765625 42.635603 6.3503469 47.283203 10.998047 C 51.930503 15.645047 54.806456 22.061425 54.806641 29.140625 C 54.806641 36.219625 51.930903 42.635603 47.283203 47.283203 C 42.636203 51.930503 36.221778 54.806456 29.142578 54.806641 L 29.142578 54.798828 L 29.140625 54.798828 L 29.140625 54.806641 C 22.061625 54.806641 15.645647 51.930903 10.998047 47.283203 C 6.3507464 42.636203 3.4767476 36.221778 3.4765625 29.142578 L 3.4824219 29.142578 L 3.4824219 29.140625 L 3.4765625 29.140625 C 3.4765625 22.061625 6.3523005 15.645647 11 10.998047 C 15.647 6.3507469 22.061425 3.4767476 29.140625 3.4765625 z "
   d="m 29.140625,0.00585938 c -8.05,1.9999e-4 -15.336169,3.25999682 -20.6054688,8.52929682 -5.2696,5.2689998 -8.52917343,12.5554688 -8.52929682,20.6054688 1.9999e-4,8.05 3.25999682,15.336069 8.52929682,20.605469 5.2689998,5.2696 12.5554688,8.529174 20.6054688,8.529297 8.05,-2e-4 15.336069,-3.259997 20.605469,-8.529297 5.2696,-5.269 8.529173,-12.553516 8.529297,-20.603516 h 0.0059 v -0.002 h -0.0059 c -2e-4,-8.05 -3.259997,-15.334216 -8.529297,-20.6035156 -5.269,-5.2696 -12.555469,-8.53112663 -20.605469,-8.53125002 z m 0,3.47070312 c 7.079,0 13.494978,2.8737844 18.142578,7.5214845 4.6473,4.647 7.523253,11.063378 7.523438,18.142578 0,7.079 -2.875738,13.494978 -7.523438,18.142578 -4.647,4.6473 -11.061425,7.523253 -18.140625,7.523438 v -0.0078 h -0.002 v 0.0078 c -7.079,0 -13.494978,-2.875738 -18.142578,-7.523438 -4.6473006,-4.647 -7.5212994,-11.061425 -7.5214845,-18.140625 h 0.00586 v -0.002 h -0.00586 c 0,-7.079 2.875738,-13.494978 7.5234375,-18.142578 4.647,-4.6473001 11.061425,-7.5212994 18.140625,-7.5214845 z" />
 </g>
<metadata
   id="metadata13"><rdf:RDF><cc:Work><dc:format>image/svg+xml</dc:format><dc:type
         rdf:resource="http://purl.org/dc/dcmitype/StillImage" /><cc:license
         rdf:resource="http://creativecommons.org/publicdomain/zero/1.0/" /><dc:publisher><cc:Agent
           rdf:about="http://openclipart.org/"><dc:title>Openclipart</dc:title></cc:Agent></dc:publisher></cc:Work><cc:License
       rdf:about="http://creativecommons.org/publicdomain/zero/1.0/"><cc:permits
         rdf:resource="http://creativecommons.org/ns#Reproduction" /><cc:permits
         rdf:resource="http://creativecommons.org/ns#Distribution" /><cc:permits
         rdf:resource="http://creativecommons.org/ns#DerivativeWorks" /></cc:License></rdf:RDF></metadata></svg>
